<?xml version="1.0" encoding="UTF-8" standalone="no"?>
<!-- Created with Inkscape (http://www.inkscape.org/) -->

<svg
   width="1000px"
   height="1000px"
   viewBox="0 0 1000 1000"
   version="1.1"
   id="svg1038"
   inkscape:version="1.1.1 (3bf5ae0d25, 2021-09-20)"
   sodipodi:docname="logo.svg"
   inkscape:export-filename="D:\Programowanie\openPsyche.org\website\public\img\logo.png"
   inkscape:export-xdpi="100.075"
   inkscape:export-ydpi="100.075"
   xmlns:inkscape="http://www.inkscape.org/namespaces/inkscape"
   xmlns:sodipodi="http://sodipodi.sourceforge.net/DTD/sodipodi-0.dtd"
   xmlns:xlink="http://www.w3.org/1999/xlink"
   xmlns="http://www.w3.org/2000/svg"
   xmlns:svg="http://www.w3.org/2000/svg">
  <sodipodi:namedview
     id="namedview1040"
     pagecolor="#ffffff"
     bordercolor="#666666"
     borderopacity="1.0"
     inkscape:pageshadow="2"
     inkscape:pageopacity="0.0"
     inkscape:pagecheckerboard="0"
     showgrid="false"
     inkscape:zoom="0.60104076"
     inkscape:cx="514.10822"
     inkscape:cy="530.74603"
     inkscape:window-width="1920"
     inkscape:window-height="1010"
     inkscape:window-x="-6"
     inkscape:window-y="-6"
     inkscape:window-maximized="1"
     inkscape:current-layer="layer1">
    <inkscape:grid
       type="xygrid"
       id="grid3544" />
  </sodipodi:namedview>
  <defs
     id="defs1035">
    <linearGradient
       inkscape:collect="always"
       xlink:href="#linearGradient4470-8"
       id="linearGradient3147"
       gradientUnits="userSpaceOnUse"
       x1="2356.6636"
       y1="554.63013"
       x2="2597.1067"
       y2="559.73157"
       gradientTransform="matrix(1.9568404,0,0,1.9568404,-4264.5085,-648.59696)" />
    <linearGradient
       id="linearGradient4470-8">
      <stop
         style="stop-color:#f14141;stop-opacity:1;"
         offset="0"
         id="stop4472-2" />
      <stop
         style="stop-color:#2c4141;stop-opacity:1;"
         offset="1"
         id="stop4474-7" />
    </linearGradient>
    <linearGradient
       inkscape:collect="always"
       xlink:href="#linearGradient4506-0"
       id="linearGradient3144"
       gradientUnits="userSpaceOnUse"
       x1="2425.6443"
       y1="648.74274"
       x2="2549.8137"
       y2="648.74274"
       gradientTransform="matrix(1.9568404,0,0,1.9568404,-4264.5085,-648.59696)" />
    <linearGradient
       id="linearGradient4506-0">
      <stop
         style="stop-color:#0099ff;stop-opacity:1;"
         offset="0"
         id="stop4508-2" />
      <stop
         style="stop-color:#6bc2ff;stop-opacity:1;"
         offset="1"
         id="stop4510-0" />
    </linearGradient>
    <linearGradient
       inkscape:collect="always"
       xlink:href="#linearGradient4462-9"
       id="linearGradient3141"
       gradientUnits="userSpaceOnUse"
       x1="2281.4988"
       y1="564.39618"
       x2="2358.3887"
       y2="486.41623"
       gradientTransform="matrix(1.9568404,0,0,1.9568404,-4264.5085,-648.59696)" />
    <linearGradient
       id="linearGradient4462-9">
      <stop
         id="stop4464-2"
         offset="0"
         style="stop-color:#89253b;stop-opacity:1;" />
      <stop
         id="stop4466-8"
         offset="1"
         style="stop-color:#409016;stop-opacity:1;" />
    </linearGradient>
    <linearGradient
       inkscape:collect="always"
       xlink:href="#linearGradient4385-0"
       id="linearGradient3138"
       gradientUnits="userSpaceOnUse"
       x1="2327.4744"
       y1="668.37012"
       x2="2377.7222"
       y2="558.80176"
       gradientTransform="matrix(1.9568404,0,0,1.9568404,-4264.5085,-648.59696)" />
    <linearGradient
       id="linearGradient4385-0">
      <stop
         style="stop-color:#d94d00;stop-opacity:1;"
         offset="0"
         id="stop4387-5" />
      <stop
         style="stop-color:#eca000;stop-opacity:1;"
         offset="1"
         id="stop4389-5" />
    </linearGradient>
    <linearGradient
       inkscape:collect="always"
       xlink:href="#linearGradient4365-7"
       id="linearGradient3135"
       gradientUnits="userSpaceOnUse"
       x1="2276.3665"
       y1="627.84076"
       x2="2452.2791"
       y2="627.84076"
       gradientTransform="matrix(1.9568404,0,0,1.9568404,-4264.5085,-648.59696)" />
    <linearGradient
       id="linearGradient4365-7">
      <stop
         style="stop-color:#0090cf;stop-opacity:1;"
         offset="0"
         id="stop4367-6" />
      <stop
         style="stop-color:#195243;stop-opacity:1;"
         offset="1"
         id="stop4369-7" />
    </linearGradient>
    <linearGradient
       inkscape:collect="always"
       xlink:href="#linearGradient4365-8-7"
       id="linearGradient3132"
       gradientUnits="userSpaceOnUse"
       x1="2521.8352"
       y1="648.61841"
       x2="2545.0232"
       y2="544.047"
       gradientTransform="matrix(1.9568404,0,0,1.9568404,-4264.5085,-648.59696)" />
    <linearGradient
       id="linearGradient4365-8-7">
      <stop
         style="stop-color:#00990a;stop-opacity:1;"
         offset="0"
         id="stop4367-8-8" />
      <stop
         style="stop-color:#00996b;stop-opacity:1;"
         offset="1"
         id="stop4369-1-1" />
    </linearGradient>
  </defs>
  <g
     inkscape:label="Warstwa 1"
     inkscape:groupmode="layer"
     id="layer1">
    <path
       style="fill:url(#linearGradient3147);fill-opacity:1;stroke:none;stroke-width:5.22434"
       d="m 338.62819,312.73209 c -45.02294,128.62956 225.68949,290.63514 394.44266,271.82516 114.3543,-12.74645 85.9468,-156.07036 61.374,-182.77875 -29.6978,-32.27858 -58.6421,-22.63807 -54.8707,-18.55248 41.1713,11.34616 74.2757,141.03995 3.1224,171.99244 C 668.73315,587.39339 483.62321,499.09275 407.96709,425.96955 327.7973,348.48381 354.9367,296.05333 375.36967,293.24488 c 0,0 -33.4293,10.02431 -36.74148,19.48721 z"
       id="path4468"
       inkscape:connector-curvature="0"
       sodipodi:nodetypes="ssscsscs" />
    <path
       style="fill:url(#linearGradient3144);fill-opacity:1;stroke:none;stroke-width:5.22434"
       d="M 724.16105,621.28274 C 739.86425,464.49952 569.19236,440.50319 497.63118,505.02363 c -84.49737,76.18398 57.97988,255.57177 57.97988,255.57177 0,0 -66.00535,-132.44119 -53.10165,-200.29753 3.99463,-21.00644 17.92596,-44.4189 38.05101,-51.64474 44.64407,-16.02932 112.07462,-5.01124 138.00613,34.70764 22.7416,34.83287 33.4835,111.76023 -20.8211,123.04903 34.4637,8.22954 54.0513,-24.81023 66.4156,-45.12706 z"
       id="path4496"
       inkscape:connector-curvature="0"
       sodipodi:nodetypes="cscaaacc" />
    <path
       style="fill:url(#linearGradient3141);fill-opacity:1;stroke:none;stroke-width:5.22434"
       d="M 220.47771,407.60495 C 186.90773,409.5029 110.0229,589.74058 280.71848,577.93963 427.69754,567.77834 632.45114,419.65375 569.58486,302.3613 531.65267,231.58951 316.11637,222.48502 334.61654,355.44013 355.32849,250.37421 509.44569,254.24188 540.13192,316.82755 590.24917,419.04348 388.64231,530.57786 284.73056,543.56233 163.69902,558.68611 220.38185,422.8362 266.54014,403.75127"
       id="path4383"
       inkscape:connector-curvature="0"
       sodipodi:nodetypes="csacasc" />
    <path
       style="fill:url(#linearGradient3138);fill-opacity:1;stroke:none;stroke-width:5.22434"
       d="m 287.40438,629.12071 c 0,0 6.4065,112.86664 117.05332,78.97446 123.93962,-37.96386 -99.27787,-467.2217 -212.15155,-272.50868 17.73015,-21.33281 42.88127,-32.47874 63.91347,-23.8378 90.9178,37.35296 200.07502,245.98197 124.04134,267.51701 -67.83011,19.21157 -87.49139,-79.60931 -54.84533,-70.46614 -22.64202,-6.04263 -31.28674,5.89827 -38.01125,20.32115 z"
       id="path4446"
       inkscape:connector-curvature="0"
       sodipodi:nodetypes="cscascc" />
    <path
       style="fill:url(#linearGradient3135);fill-opacity:1;stroke:none;stroke-width:5.22434"
       d="M 544.98386,764.34972 C 488.9873,720.86048 412.29995,650.19544 356.70942,620.35161 c -40.98604,-20.98132 -68.30918,-18.68506 -63.86363,35.9982 -21.10085,-56.29926 13.76441,-81.82899 41.92961,-74.06196 64.32233,17.73794 108.08762,60.1006 210.20846,182.06187 z"
       id="path4363"
       inkscape:connector-curvature="0"
       sodipodi:nodetypes="cccsc" />
    <path
       style="fill:url(#linearGradient3132);fill-opacity:1;stroke:none;stroke-width:5.22434"
       d="m 814.67355,457.49891 c -11.9904,-98.03453 -91.4601,-118.12039 -155.2693,-81.1247 -46.24286,26.811 -103.9378,85.38927 -120.599,146.37262 -12.57379,46.02231 -13.28555,110.06561 22.20261,141.39462 45.09038,39.80591 180.30209,47.80197 163.32169,-79.10241 3.2564,29.44649 -6.7942,51.32872 -42.4181,71.16679 -38.43353,18.95208 -88.07081,7.24882 -107.55264,-23.88176 -33.03919,-52.79441 -10.64678,-120.69813 43.31051,-181.75175 53.95733,-61.05362 105.22333,-65.64952 126.15033,-65.64952 55.6376,0.67833 68.4602,58.59822 70.8539,72.57611 z"
       id="path4478"
       inkscape:connector-curvature="0"
       sodipodi:nodetypes="csasccascc" />
    <path
       style="fill:none;stroke:#888a85;stroke-width:5.9243;stroke-linecap:round;stroke-miterlimit:4;stroke-dasharray:5.9243, 11.8486;stroke-dashoffset:0;stroke-opacity:1"
       d="M 525.03185,785.20011 C 497.55795,769.11116 479.388,729.34515 443.31154,733.4864 406.66795,745.81521 367.15418,764.35411 328.47785,746.98122 285.02898,731.1154 257.31219,688.28982 249.49547,644.086 217.39323,635.18332 177.00406,633.81348 154.14232,604.33319 122.59001,562.652 131.01571,505.95105 138.7237,457.75056 c 6.33504,-34.45473 22.45393,-67.74547 51.10841,-88.99582 18.69786,-29.34018 44.58245,-53.33153 73.48299,-72.30427 18.79599,-29.71953 60.08561,-30.21403 82.01719,-56.66848 28.69179,-16.54853 63.50297,-16.33788 95.22016,-22.51196 31.01333,-5.6576 62.23224,-7.48834 93.85632,-8.09786 36.81189,1.62853 67.13708,23.50149 105.3271,19.92475 39.70167,7.43442 62.6494,44.28228 98.62964,59.37831 24.0469,25.19555 59.14677,40.73307 71.81748,75.43466 23.29783,40.98937 60.51596,79.28902 57.80868,129.91083 -1.46694,41.45805 -30.10642,74.38781 -50.84726,108.04717 -21.59522,25.29144 -60.22475,30.14643 -68.63001,66.9536 -34.04571,52.38701 -99.75853,72.18331 -159.48033,70.48553 -28.36804,-0.0881 15.0631,49.01575 -23.83181,48.10473 -13.22369,2.42013 -28.54642,7.51547 -40.17041,-2.21164 z m 29.97407,-8.59206 c 32.96286,-0.47808 -13.42579,-49.49194 26.7212,-49.11429 56.01426,0.53858 117.03968,-16.19092 151.88613,-63.116 11.88819,-31.65992 37.44094,-48.99548 65.89136,-64.30903 19.61967,-24.89874 37.14892,-52.55692 49.76439,-81.76094 17.32521,-46.31599 -12.91483,-91.31055 -39.90652,-126.61386 -14.19974,-28.75245 -30.26201,-56.04288 -59.06241,-72.23166 -19.58885,-22.75655 -49.85685,-31.42945 -70.13989,-53.57254 -26.13171,-24.12375 -62.35847,-27.0398 -96.0349,-28.07904 -38.05549,-19.7711 -84.22468,-19.2398 -124.97164,-8.36281 -34.89412,4.68443 -72.68203,5.89537 -104.26784,22.35122 -22.62562,25.12856 -61.45869,27.00597 -82.2052,55.55639 -26.71494,18.2141 -53.04452,38.80651 -69.10875,67.6975 -25.04065,18.72827 -42.85476,43.28667 -48.08381,75.27223 -13.47479,50.50413 -21.52569,114.93065 20.65668,154.39993 21.63368,30.57939 71.847,8.67857 87.42451,38.65445 8.80776,51.56991 53.21976,101.98079 109.18041,96.03452 33.97904,-1.64621 66.59192,-33.75972 100.7421,-14.50163 29.56609,12.1248 47.29335,54.74378 81.51418,51.69556 z"
       id="path4627"
       inkscape:connector-curvature="0" />
  </g>
</svg>
