<svg width="1e3px" height="1e3px" version="1.1" viewBox="0 0 1e3 1e3" xmlns="http://www.w3.org/2000/svg" xmlns:xlink="http://www.w3.org/1999/xlink">
 <defs>
  <linearGradient id="linearGradient3147" x1="2356.7" x2="2597.1" y1="554.63" y2="559.73" gradientTransform="matrix(1.9568 0 0 1.9568 -4264.5 -648.6)" gradientUnits="userSpaceOnUse">
   <stop stop-color="#f14141" offset="0"/>
   <stop stop-color="#2c4141" offset="1"/>
  </linearGradient>
  <linearGradient id="linearGradient3144" x1="2425.6" x2="2549.8" y1="648.74" y2="648.74" gradientTransform="matrix(1.9568 0 0 1.9568 -4264.5 -648.6)" gradientUnits="userSpaceOnUse">
   <stop stop-color="#09f" offset="0"/>
   <stop stop-color="#6bc2ff" offset="1"/>
  </linearGradient>
  <linearGradient id="linearGradient3141" x1="2281.5" x2="2358.4" y1="564.4" y2="486.42" gradientTransform="matrix(1.9568 0 0 1.9568 -4264.5 -648.6)" gradientUnits="userSpaceOnUse">
   <stop stop-color="#89253b" offset="0"/>
   <stop stop-color="#409016" offset="1"/>
  </linearGradient>
  <linearGradient id="linearGradient3138" x1="2327.5" x2="2377.7" y1="668.37" y2="558.8" gradientTransform="matrix(1.9568 0 0 1.9568 -4264.5 -648.6)" gradientUnits="userSpaceOnUse">
   <stop stop-color="#d94d00" offset="0"/>
   <stop stop-color="#eca000" offset="1"/>
  </linearGradient>
  <linearGradient id="linearGradient3135" x1="2276.4" x2="2452.3" y1="627.84" y2="627.84" gradientTransform="matrix(1.9568 0 0 1.9568 -4264.5 -648.6)" gradientUnits="userSpaceOnUse">
   <stop stop-color="#0090cf" offset="0"/>
   <stop stop-color="#195243" offset="1"/>
  </linearGradient>
  <linearGradient id="linearGradient3132" x1="2521.8" x2="2545" y1="648.62" y2="544.05" gradientTransform="matrix(1.9568 0 0 1.9568 -4264.5 -648.6)" gradientUnits="userSpaceOnUse">
   <stop stop-color="#00990a" offset="0"/>
   <stop stop-color="#00996b" offset="1"/>
  </linearGradient>
 </defs>
 <g>
  <path d="m338.63 312.73c-45.023 128.63 225.69 290.64 394.44 271.83 114.35-12.746 85.947-156.07 61.374-182.78-29.698-32.279-58.642-22.638-54.871-18.552 41.171 11.346 74.276 141.04 3.1224 171.99-73.963 32.175-259.07-56.126-334.73-129.25-80.17-77.486-53.03-129.92-32.597-132.72 0 0-33.429 10.024-36.741 19.487z" fill="url(#linearGradient3147)"/>
  <path d="m724.16 621.28c15.703-156.78-154.97-180.78-226.53-116.26-84.497 76.184 57.98 255.57 57.98 255.57s-66.005-132.44-53.102-200.3c3.9946-21.006 17.926-44.419 38.051-51.645 44.644-16.029 112.07-5.0112 138.01 34.708 22.742 34.833 33.484 111.76-20.821 123.05 34.464 8.2295 54.051-24.81 66.416-45.127z" fill="url(#linearGradient3144)"/>
  <path d="m220.48 407.6c-33.57 1.898-110.45 182.14 60.241 170.33 146.98-10.161 351.73-158.29 288.87-275.58-37.932-70.772-253.47-79.876-234.97 53.079 20.712-105.07 174.83-101.2 205.52-38.613 50.117 102.22-151.49 213.75-255.4 226.73-121.03 15.124-64.349-120.73-18.19-139.81" fill="url(#linearGradient3141)"/>
  <path d="m287.4 629.12s6.4065 112.87 117.05 78.974c123.94-37.964-99.278-467.22-212.15-272.51 17.73-21.333 42.881-32.479 63.913-23.838 90.918 37.353 200.08 245.98 124.04 267.52-67.83 19.212-87.491-79.609-54.845-70.466-22.642-6.0426-31.287 5.8983-38.011 20.321z" fill="url(#linearGradient3138)"/>
  <path d="m544.98 764.35c-55.997-43.489-132.68-114.15-188.27-144-40.986-20.981-68.309-18.685-63.864 35.998-21.101-56.299 13.764-81.829 41.93-74.062 64.322 17.738 108.09 60.101 210.21 182.06z" fill="url(#linearGradient3135)"/>
  <path d="m814.67 457.5c-11.99-98.035-91.46-118.12-155.27-81.125-46.243 26.811-103.94 85.389-120.6 146.37-12.574 46.022-13.286 110.07 22.203 141.39 45.09 39.806 180.3 47.802 163.32-79.102 3.2564 29.446-6.7942 51.329-42.418 71.167-38.434 18.952-88.071 7.2488-107.55-23.882-33.039-52.794-10.647-120.7 43.311-181.75 53.957-61.054 105.22-65.65 126.15-65.65 55.638 0.67833 68.46 58.598 70.854 72.576z" fill="url(#linearGradient3132)"/>
 </g>
 <path d="m525.03 797.26c-27.474-16.426-45.644-57.024-81.72-52.796-36.644 12.587-76.157 31.514-114.83 13.777-43.449-16.198-71.166-59.92-78.982-105.05-32.102-9.0891-72.491-10.488-95.353-40.585-31.552-42.554-23.127-100.44-15.419-149.65 6.335-35.176 22.454-69.164 51.108-90.859 18.698-29.954 44.582-54.448 73.483-73.818 18.796-30.342 60.086-30.847 82.017-57.855 28.692-16.895 63.503-16.68 95.22-22.983 31.013-5.776 62.232-7.6451 93.856-8.2674 36.812 1.6626 67.137 23.994 105.33 20.342 39.702 7.5901 62.649 45.209 98.63 60.622 24.047 25.723 59.147 41.586 71.817 77.014 23.298 41.848 60.516 80.949 57.809 132.63-1.4669 42.326-30.106 75.945-50.847 110.31-21.595 25.821-60.225 30.778-68.63 68.355-34.046 53.484-99.759 73.695-159.48 71.961-28.368-0.0899 15.063 50.042-23.832 49.112-13.224 2.4708-28.546 7.6728-40.17-2.258z" fill="none" stroke="#babdb6" stroke-dasharray="20.2083, 40.4166" stroke-dashoffset="28.292" stroke-linecap="round" stroke-width="20.208"/>
</svg>
