<?xml version="1.0" encoding="UTF-8" standalone="no"?>
<svg
   width="3455.0566"
   height="614.13837"
   version="1.1"
   viewBox="0 0 3455.0567 614.13837"
   id="svg50"
   sodipodi:docname="logoAndName.svg"
   inkscape:version="1.1.1 (3bf5ae0d25, 2021-09-20)"
   inkscape:export-filename="D:\Programowanie\openPsyche.org\psyche.guide\public\images\logoAndName.png"
   inkscape:export-xdpi="100.075"
   inkscape:export-ydpi="100.075"
   xmlns:inkscape="http://www.inkscape.org/namespaces/inkscape"
   xmlns:sodipodi="http://sodipodi.sourceforge.net/DTD/sodipodi-0.dtd"
   xmlns="http://www.w3.org/2000/svg"
   xmlns:svg="http://www.w3.org/2000/svg">
  <sodipodi:namedview
     id="namedview52"
     pagecolor="#ffffff"
     bordercolor="#666666"
     borderopacity="1.0"
     inkscape:pageshadow="2"
     inkscape:pageopacity="0.0"
     inkscape:pagecheckerboard="0"
     showgrid="false"
     inkscape:zoom="0.1665"
     inkscape:cx="522.52252"
     inkscape:cy="945.94595"
     inkscape:window-width="1920"
     inkscape:window-height="1010"
     inkscape:window-x="-6"
     inkscape:window-y="-6"
     inkscape:window-maximized="1"
     inkscape:current-layer="svg50" />
  <defs
     id="defs32">
    <linearGradient
       id="linearGradient3147"
       x1="2356.7"
       x2="2597.1001"
       y1="554.63"
       y2="559.72998"
       gradientTransform="matrix(1.9568,0,0,1.9568,-4264.5,-648.6)"
       gradientUnits="userSpaceOnUse">
      <stop
         stop-color="#f14141"
         offset="0"
         id="stop2" />
      <stop
         stop-color="#2c4141"
         offset="1"
         id="stop4" />
    </linearGradient>
    <linearGradient
       id="linearGradient3144"
       x1="2425.6001"
       x2="2549.8"
       y1="648.73999"
       y2="648.73999"
       gradientTransform="matrix(1.9568,0,0,1.9568,-4264.5,-648.6)"
       gradientUnits="userSpaceOnUse">
      <stop
         stop-color="#09f"
         offset="0"
         id="stop7" />
      <stop
         stop-color="#6bc2ff"
         offset="1"
         id="stop9" />
    </linearGradient>
    <linearGradient
       id="linearGradient3141"
       x1="2281.5"
       x2="2358.3999"
       y1="564.40002"
       y2="486.42001"
       gradientTransform="matrix(1.9568,0,0,1.9568,-4264.5,-648.6)"
       gradientUnits="userSpaceOnUse">
      <stop
         stop-color="#89253b"
         offset="0"
         id="stop12" />
      <stop
         stop-color="#409016"
         offset="1"
         id="stop14" />
    </linearGradient>
    <linearGradient
       id="linearGradient3138"
       x1="2327.5"
       x2="2377.7"
       y1="668.37"
       y2="558.79999"
       gradientTransform="matrix(1.9568,0,0,1.9568,-4264.5,-648.6)"
       gradientUnits="userSpaceOnUse">
      <stop
         stop-color="#d94d00"
         offset="0"
         id="stop17" />
      <stop
         stop-color="#eca000"
         offset="1"
         id="stop19" />
    </linearGradient>
    <linearGradient
       id="linearGradient3135"
       x1="2276.3999"
       x2="2452.3"
       y1="627.84003"
       y2="627.84003"
       gradientTransform="matrix(1.9568,0,0,1.9568,-4264.5,-648.6)"
       gradientUnits="userSpaceOnUse">
      <stop
         stop-color="#0090cf"
         offset="0"
         id="stop22" />
      <stop
         stop-color="#195243"
         offset="1"
         id="stop24" />
    </linearGradient>
    <linearGradient
       id="linearGradient3132"
       x1="2521.8"
       x2="2545"
       y1="648.62"
       y2="544.04999"
       gradientTransform="matrix(1.9568,0,0,1.9568,-4264.5,-648.6)"
       gradientUnits="userSpaceOnUse">
      <stop
         stop-color="#00990a"
         offset="0"
         id="stop27" />
      <stop
         stop-color="#00996b"
         offset="1"
         id="stop29" />
    </linearGradient>
  </defs>
  <g
     id="g10189"
     inkscape:export-filename="D:\Programowanie\openPsyche.org\psyche.guide\public\images\logoAndName.png"
     inkscape:export-xdpi="100.075"
     inkscape:export-ydpi="100.075">
    <g
       id="g46"
       transform="translate(-121.70007,-199.07417)">
      <path
         d="m 338.63,312.73 c -45.023,128.63 225.69,290.64 394.44,271.83 114.35,-12.746 85.947,-156.07 61.374,-182.78 -29.698,-32.279 -58.642,-22.638 -54.871,-18.552 41.171,11.346 74.276,141.04 3.1224,171.99 -73.963,32.175 -259.07,-56.126 -334.73,-129.25 -80.17,-77.486 -53.03,-129.92 -32.597,-132.72 0,0 -33.429,10.024 -36.741,19.487 z"
         fill="url(#linearGradient3147)"
         id="path34"
         style="fill:url(#linearGradient3147)" />
      <path
         d="M 724.16,621.28 C 739.863,464.5 569.19,440.5 497.63,505.02 c -84.497,76.184 57.98,255.57 57.98,255.57 0,0 -66.005,-132.44 -53.102,-200.3 3.9946,-21.006 17.926,-44.419 38.051,-51.645 44.644,-16.029 112.07,-5.0112 138.01,34.708 22.742,34.833 33.484,111.76 -20.821,123.05 34.464,8.2295 54.051,-24.81 66.416,-45.127 z"
         fill="url(#linearGradient3144)"
         id="path36"
         style="fill:url(#linearGradient3144)" />
      <path
         d="m 220.48,407.6 c -33.57,1.898 -110.45,182.14 60.241,170.33 146.98,-10.161 351.73,-158.29 288.87,-275.58 -37.932,-70.772 -253.47,-79.876 -234.97,53.079 20.712,-105.07 174.83,-101.2 205.52,-38.613 50.117,102.22 -151.49,213.75 -255.4,226.73 -121.03,15.124 -64.349,-120.73 -18.19,-139.81"
         fill="url(#linearGradient3141)"
         id="path38"
         style="fill:url(#linearGradient3141)" />
      <path
         d="m 287.4,629.12 c 0,0 6.4065,112.87 117.05,78.974 123.94,-37.964 -99.278,-467.22 -212.15,-272.51 17.73,-21.333 42.881,-32.479 63.913,-23.838 90.918,37.353 200.08,245.98 124.04,267.52 -67.83,19.212 -87.491,-79.609 -54.845,-70.466 -22.642,-6.0426 -31.287,5.8983 -38.011,20.321 z"
         fill="url(#linearGradient3138)"
         id="path40"
         style="fill:url(#linearGradient3138)" />
      <path
         d="M 544.98,764.35 C 488.983,720.861 412.3,650.2 356.71,620.35 c -40.986,-20.981 -68.309,-18.685 -63.864,35.998 -21.101,-56.299 13.764,-81.829 41.93,-74.062 64.322,17.738 108.09,60.101 210.21,182.06 z"
         fill="url(#linearGradient3135)"
         id="path42"
         style="fill:url(#linearGradient3135)" />
      <path
         d="M 814.67,457.5 C 802.68,359.465 723.21,339.38 659.4,376.375 c -46.243,26.811 -103.94,85.389 -120.6,146.37 -12.574,46.022 -13.286,110.07 22.203,141.39 45.09,39.806 180.3,47.802 163.32,-79.102 3.2564,29.446 -6.7942,51.329 -42.418,71.167 -38.434,18.952 -88.071,7.2488 -107.55,-23.882 -33.039,-52.794 -10.647,-120.7 43.311,-181.75 53.957,-61.054 105.22,-65.65 126.15,-65.65 55.638,0.67833 68.46,58.598 70.854,72.576 z"
         fill="url(#linearGradient3132)"
         id="path44"
         style="fill:url(#linearGradient3132)" />
    </g>
    <path
       d="m 403.32993,598.18583 c -27.474,-16.426 -45.644,-57.024 -81.72,-52.796 -36.644,12.587 -76.157,31.514 -114.83,13.777 -43.449,-16.198 -71.166,-59.92 -78.982,-105.05 -32.102002,-9.0891 -72.491002,-10.488 -95.353002,-40.585 -31.55199973,-42.554 -23.1269997,-100.44 -15.419,-149.65 6.335,-35.176 22.454,-69.164 51.108,-90.859 18.698,-29.954 44.582002,-54.448 73.483002,-73.817997 18.796,-30.342 60.086,-30.847 82.017,-57.855 28.692,-16.895 63.503,-16.68 95.22,-22.983 31.013,-5.776 62.232,-7.6451 93.856,-8.2674 36.812,1.6626 67.137,23.994 105.33,20.342 39.702,7.5901 62.649,45.209 98.63,60.622 24.047,25.722997 59.147,41.585997 71.817,77.013997 23.298,41.848 60.516,80.949 57.809,132.63 -1.4669,42.326 -30.106,75.945 -50.847,110.31 -21.595,25.821 -60.225,30.778 -68.63,68.355 -34.046,53.484 -99.759,73.695 -159.48,71.961 -28.368,-0.0899 15.063,50.042 -23.832,49.112 -13.224,2.4708 -28.546,7.6728 -40.17,-2.258 z"
       fill="none"
       stroke="#babdb6"
       stroke-dasharray="20.2083, 40.4166"
       stroke-dashoffset="28.292"
       stroke-linecap="round"
       stroke-width="20.208"
       id="path48" />
  </g>
  <text
     xml:space="preserve"
     style="font-style:normal;font-variant:normal;font-weight:500;font-stretch:normal;font-size:426.667px;line-height:2.65;font-family:'Advent Pro';-inkscape-font-specification:'Advent Pro Medium';fill:#555753"
     x="974.93469"
     y="415.22925"
     id="text2147"
     inkscape:export-filename="D:\Programowanie\openPsyche.org\psyche.guide\public\images\logoAndName.png"
     inkscape:export-xdpi="100.075"
     inkscape:export-ydpi="100.075"><tspan
       sodipodi:role="line"
       id="tspan2145"
       x="974.93469"
       y="415.22925"
       style="font-style:normal;font-variant:normal;font-weight:normal;font-stretch:normal;font-size:426.667px;font-family:'Red Hat Display';-inkscape-font-specification:'Red Hat Display';fill:#2e3436">psyche.guide</tspan></text>
</svg>
